#!OML:ASF F:\VICON\USERDATA\INSTALL\rory3\rory3.ASF
:FULLY-SPECIFIED
:DEGREES
32
root 0.56947 17.8987 -24.3456 -1.49646 2.91121 1.63174
lowerback 11.4382 -1.67994 -4.9693
upperback -0.623213 -2.77315 2.06635
thorax -6.75015 -1.14173 5.4709
lowerneck -13.3006 -2.04365 -3.09409
upperneck 20.4447 -2.18916 0.191012
head 8.60737 -1.25478 0.33295
rclavicle -5.46658e-016 -7.55382e-015
rhumerus -36.8787 -22.5313 -73.3725
rradius 22.4107
rwrist 7.73216
rhand -17.0939 23.032
rfingers 7.12502
rthumb 9.14469 -6.74969
lclavicle -5.46658e-016 -7.55382e-015
lhumerus -24.3379 3.24516 81.3953
lradius 28.8722
lwrist 10.2343
lhand -29.8546 20.8883
lfingers 7.12502
lthumb -3.17706 50.8443
rfemur -29.6029 0.454278 19.9463
rtibia 25.5704
rfoot -5.02306 -15.5644
rtoes 0.816094
lfemur 6.08341 0.203204 -26.5164
ltibia 17.8077
lfoot -15.4833 -1.07038
ltoes -18.111
33
root 0.564771 17.8795 -24.1683 -1.40266 2.90636 1.8249
lowerback 11.0149 -1.1598 -4.51688
upperback 0.341696 -2.02676 1.4158
thorax -5.61707 -0.859105 4.35544
lowerneck -16.6716 -2.64213 -2.02377
upperneck 21.2144 -3.20195 0.25799
head 9.49142 -1.62656 0.00998023
rclavicle -1.69961e-014 -1.98785e-015
rhumerus -35.7554 -26.2179 -73.3423
rradius 21.8926
rwrist 8.84158
rhand -16.508 24.2723
rfingers 7.12502
rthumb 9.71005 -5.48386
lclavicle -1.69961e-014 -1.98785e-015
lhumerus -21.4755 1.06571 81.4703
lradius 28.6409
lwrist 10.4412
lhand -29.7429 22.4706
lfingers 7.12502
lthumb -3.06921 52.4283
rfemur -29.2532 1.3489 19.4298
rtibia 22.9337
rfoot -4.73012 -15.6078
rtoes -0.406948
lfemur 7.07777 0.391647 -26.6857
ltibia 16.9796
lfoot -15.9631 -0.629157
ltoes -21.8547
34
root 0.558753 17.8525 -23.9871 -1.36971 2.90078 1.96501
lowerback 11.0392 -1.20683 -4.88701
upperback 0.146953 -2.13417 1.53222
thorax -5.80834 -0.890136 4.71132
lowerneck -16.1771 -2.61647 -2.14487
upperneck 21.1437 -3.12024 0.151059
head 9.3747 -1.61274 0.0110985
rclavicle 3.08116e-015 -1.31198e-014
rhumerus -36.3328 -26.2303 -72.7607
rradius 21.7212
rwrist 9.21677
rhand -16.1683 24.9202
rfingers 7.12502
rthumb 10.0378 -4.82038
lclavicle 3.08116e-015 -1.31198e-014
lhumerus -21.6987 1.18184 81.6233
lradius 28.7057
lwrist 10.1628
lhand -30.2585 22.8149
lfingers 7.12502
lthumb -3.56706 52.7648
rfemur -28.8327 2.18725 18.9687
rtibia 20.5357
rfoot -5.51022 -15.5821
rtoes -5.34554
lfemur 8.09087 0.475586 -26.8252
ltibia 16.2677
lfoot -17.2712 0.310214
ltoes -27.6596
35
root 0.553088 17.8446 -23.808 -1.37791 2.95109 1.91983
lowerback 11.042 -1.19343 -4.80231
upperback 0.260776 -2.10548 1.49903
thorax -5.69664 -0.884927 4.62064
lowerneck -16.7345 -2.74099 -1.96733
upperneck 21.1893 -3.31351 0.0903687
head 9.49141 -1.69292 -0.0725419
rclavicle 8.17502e-015 2.38542e-015
rhumerus -36.3471 -26.6551 -72.693
rradius 21.6033
rwrist 9.32726
rhand -16.5445 24.3985
rfingers 7.12502
rthumb 9.67486 -5.35928
lclavicle 8.17502e-015 2.38542e-015
lhumerus -21.293 0.686501 81.6972
lradius 28.7343
lwrist 10.0988
lhand -30.788 22.749
lfingers 7.12502
lthumb -4.07846 52.6897
rfemur -28.2683 3.19377 18.6164
rtibia 18.3619
rfoot -6.94219 -15.648
rtoes -6.68585
lfemur 8.9694 0.437524 -26.7394
ltibia 15.8586
lfoot -16.0569 -0.231217
ltoes -24.8724
36
root 0.546043 17.8398 -23.6311 -1.39726 3.20815 1.91669
lowerback 11.0062 -1.26963 -4.81265
upperback 0.309438 -2.20577 1.49478
thorax -5.61341 -0.93788 4.63405
lowerneck -16.7789 -2.8095 -2.03089
upperneck 21.2932 -3.42399 0.223476
head 9.5411 -1.73393 -0.0321168
rclavicle 2.09221e-014 8.34896e-015
rhumerus -36.508 -26.7098 -72.7005
rradius 21.6337
rwrist 9.2056
rhand -17.5033 23.1317
rfingers 7.12502
rthumb 8.74968 -6.66697
lclavicle 2.09221e-014 8.34896e-015
lhumerus -21.0222 0.253504 81.7758
lradius 28.7536
lwrist 10.321
lhand -30.8328 22.4049
lfingers 7.12502
lthumb -4.12165 52.3448
rfemur -27.6176 4.18859 18.1919
rtibia 16.3951
rfoot -8.41666 -15.9172
rtoes -8.65175
lfemur 9.60831 0.0695964 -26.7006
ltibia 15.8633
lfoot -15.9922 -0.50563
ltoes -22.4844
37
root 0.539588 17.8143 -23.4562 -1.43702 3.66672 1.8984
lowerback 11.1662 -1.45058 -4.88486
upperback 0.168373 -2.46012 1.58988
thorax -5.81681 -1.04983 4.82509
lowerneck -16.3947 -2.76966 -2.29201
upperneck 21.5072 -3.3477 0.378606
head 9.5523 -1.70393 0.078583
rclavicle -5.24295e-015 -7.95139e-016
rhumerus -36.9151 -26.4424 -72.5339
rradius 21.7815
rwrist 9.14112
rhand -18.1118 21.8123
rfingers 7.12502
rthumb 8.16248 -8.01008
lclavicle -5.24295e-015 -7.95139e-016
lhumerus -21.2109 -0.393831 82.1172
lradius 28.0031
lwrist 8.87535
lhand -32.8326 15.7852
lfingers 7.12502
lthumb -6.05264 45.6788
rfemur -26.9869 4.97316 17.799
rtibia 14.7743
rfoot -10.2322 -16.2148
rtoes -9.16424
lfemur 10.0763 -0.370895 -26.6262
ltibia 16.1941
lfoot -15.6801 -0.729551
ltoes -21.3611
38
root 0.528602 17.7884 -23.2825 -1.36546 3.87127 1.7539
lowerback 11.0539 -1.60786 -4.95858
upperback 0.0427575 -2.66372 1.79362
thorax -5.85021 -1.14146 5.11258
lowerneck -15.9602 -2.64474 -2.51106
upperneck 21.3717 -3.13321 0.407948
head 9.42583 -1.62085 0.15977
rclavicle -1.26725e-015 1.98785e-015
rhumerus -37.2789 -26.439 -72.0971
rradius 21.7004
rwrist 9.41173
rhand -18.0577 21.5639
rfingers 7.12502
rthumb 8.21462 -8.25643
lclavicle -1.26725e-015 1.98785e-015
lhumerus -21.4163 -0.22449 82.2748
lradius 28.0619
lwrist 8.88388
lhand -32.1325 14.2872
lfingers 7.12502
lthumb -5.37667 44.199
rfemur -26.6811 5.51405 17.784
rtibia 13.8875
rfoot -11.968 -16.1683
rtoes -7.68568
lfemur 10.3742 -0.764902 -26.427
ltibia 16.6769
lfoot -16.3465 -0.617031
ltoes -21.5603
39
root 0.516309 17.7698 -23.1049 -1.2859 3.81827 1.61947
lowerback 11.0239 -1.76358 -5.19284
upperback -0.239529 -2.88548 2.11388
thorax -6.07895 -1.22414 5.62876
lowerneck -15.0439 -2.41044 -2.84246
upperneck 21.0153 -2.73153 0.33651
head 9.13071 -1.47131 0.254511
rclavicle -6.43565e-015 -1.19271e-014
rhumerus -37.7994 -25.8258 -71.5788
rradius 21.4482
rwrist 9.40445
rhand -17.863 22.1182
rfingers 7.12502
rthumb 8.40251 -7.6947
lclavicle -6.43565e-015 -1.19271e-014
lhumerus -22.0285 0.779736 82.3719
lradius 28.4754
lwrist 9.10763
lhand -30.8863 15.4906
lfingers 7.12502
lthumb -4.1733 45.4295
rfemur -26.5619 5.3573 18.1612
rtibia 13.7342
rfoot -10.9409 -15.3042
rtoes -8.13958
lfemur 10.571 -0.947002 -26.223
ltibia 17.3532
lfoot -18.2491 -0.147093
ltoes -23.9032
40
root 0.50664 17.7569 -22.9263 -1.22591 3.82461 1.69289
lowerback 11.2038 -1.87012 -5.44595
upperback -0.606132 -3.06871 2.23349
thorax -6.52869 -1.27673 5.95343
lowerneck -14.091 -2.27358 -3.10785
upperneck 20.8714 -2.5151 0.357323
head 8.9063 -1.39178 0.343456
rclavicle -1.06847e-015 -4.77083e-015
rhumerus -38.4123 -25.454 -71.1287
rradius 21.1719
rwrist 9.3965
rhand -17.9637 22.1047
rfingers 7.12502
rthumb 8.30533 -7.71207
lclavicle -1.06847e-015 -4.77083e-015
lhumerus -22.6497 1.0414 82.4662
lradius 28.4272
lwrist 8.8073
lhand -31.5338 15.7376
lfingers 7.12502
lthumb -4.79856 45.6632
rfemur -26.5888 4.24646 18.675
rtibia 14.2961
rfoot -9.98461 -13.7542
rtoes -8.10072
lfemur 10.7962 -1.20106 -26.2715
ltibia 17.9811
lfoot -17.6554 0.434409
ltoes -30.0074
41
root 0.493297 17.7488 -22.752 -1.23351 3.8506 1.43881
lowerback 11.2343 -1.71051 -5.0072
upperback -0.43864 -2.80487 2.09082
thorax -6.43035 -1.17228 5.50548
lowerneck -14.7875 -2.46964 -2.69613
upperneck 21.1096 -2.86462 0.356918
head 9.11578 -1.52087 0.223452
rclavicle -2.48481e-015 -1.66979e-014
rhumerus -38.5299 -26.9726 -70.7386
rradius 20.8931
rwrist 10.0406
rhand -18.2655 21.8453
rfingers 7.12502
rthumb 8.01409 -7.98272
lclavicle -2.48481e-015 -1.66979e-014
lhumerus -21.99 0.117571 82.5305
lradius 28.4785
lwrist 9.1094
lhand -31.4361 16.9847
lfingers 7.12502
lthumb -4.70427 46.9125
rfemur -26.791 2.97366 19.6441
rtibia 15.5346
rfoot -9.26545 -11.7624
rtoes -8.37683
lfemur 11.0869 -1.39197 -25.9065
ltibia 18.5122
lfoot -18.0364 0.494097
ltoes -31.7805
42
root 0.479403 17.7406 -22.5682 -1.33784 3.91798 1.31753
lowerback 11.0549 -1.37485 -4.49295
upperback 0.277485 -2.29394 1.72794
thorax -5.66701 -0.98442 4.71599
lowerneck -17.3352 -2.83809 -1.94296
upperneck 21.8549 -3.51573 0.361249
head 9.84502 -1.74954 -0.0241033
rclavicle 2.8302e-014 -9.54166e-015
rhumerus -37.9986 -29.7013 -70.5756
rradius 20.6059
rwrist 10.8947
rhand -18.1986 22.226
rfingers 7.12502
rthumb 8.07862 -7.59964
lclavicle 2.8302e-014 -9.54166e-015
lhumerus -20.1671 -1.26406 82.5659
lradius 28.4018
lwrist 9.31459
lhand -31.0031 18.103
lfingers 7.12502
lthumb -4.28609 48.0397
rfemur -26.8705 1.93043 20.3754
rtibia 16.9713
rfoot -8.78884 -9.78559
rtoes -8.37121
lfemur 11.4847 -1.54916 -25.6692
ltibia 19.1478
lfoot -17.0134 -2.73281
ltoes -7.72874
43
root 0.468302 17.7322 -22.3779 -1.38911 3.88732 1.53174
lowerback 11.1777 -1.95621 -5.64904
upperback -0.756443 -3.19654 2.47323
thorax -6.63323 -1.32005 6.35129
lowerneck -13.4748 -2.17094 -3.21686
upperneck 21.0646 -2.32612 0.158762
head 8.85515 -1.33628 0.322193
rclavicle -3.11346e-014 -1.35174e-014
rhumerus -39.4051 -26.2808 -69.8099
rradius 20.5393
rwrist 10.3058
rhand -18.1691 22.2849
rfingers 7.12502
rthumb 8.10715 -7.53962
lclavicle -3.11346e-014 -1.35174e-014
lhumerus -23.0131 0.82759 82.9777
lradius 28.8855
lwrist 8.8814
lhand -31.6025 20.1879
lfingers 7.12502
lthumb -4.86494 50.1121
rfemur -26.9277 1.35211 20.5906
rtibia 18.3908
rfoot -8.23534 -8.79253
rtoes -7.16334
lfemur 11.8698 -1.72152 -25.845
ltibia 19.8224
lfoot -16.6094 -1.47287
ltoes -24.9627
44
root 0.450451 17.7349 -22.1887 -1.48086 3.84629 1.21914
lowerback 11.2533 -1.7932 -5.29314
upperback -0.591266 -2.93436 2.43541
thorax -6.55639 -1.21178 6.06509
lowerneck -14.0264 -2.39561 -2.95118
upperneck 21.0764 -2.67518 0.138314
head 8.96231 -1.47917 0.223681
rclavicle 3.8266e-014 3.97569e-015
rhumerus -39.5055 -27.1771 -69.6095
rradius 20.4388
rwrist 10.4474
rhand -18.2674 22.1307
rfingers 7.12502
rthumb 8.01229 -7.69744
lclavicle 3.8266e-014 3.97569e-015
lhumerus -22.4973 0.427286 83.0355
lradius 28.0091
lwrist 7.62927
lhand -32.6084 14.8566
lfingers 7.12502
lthumb -5.8361 44.7562
rfemur -26.9349 1.42641 21.2106
rtibia 19.7788
rfoot -7.21453 -9.26204
rtoes -6.41321
lfemur 12.2998 -2.00863 -25.434
ltibia 20.395
lfoot -16.0158 -3.03877
ltoes -14.5628
45
root 0.433582 17.7522 -21.9867 -1.67747 3.99041 0.996149
lowerback 11.2147 -1.66127 -4.87493
upperback -0.311888 -2.70858 2.24951
thorax -6.29462 -1.13491 5.5794
lowerneck -14.7641 -2.61379 -2.46441
upperneck 21.2239 -3.05132 0.0450907
head 9.14468 -1.62409 0.0551981
rclavicle -4.24902e-015 -1.07344e-014
rhumerus -39.6571 -28.5681 -69.4126
rradius 20.3653
rwrist 10.8799
rhand -18.3445 22.1524
rfingers 7.12502
rthumb 7.93782 -7.67855
lclavicle -4.24902e-015 -1.07344e-014
lhumerus -22.0093 -0.0714971 82.9992
lradius 27.8593
lwrist 6.80479
lhand -32.8011 13.3361
lfingers 7.12502
lthumb -6.02218 43.2305
rfemur -26.8219 1.80019 21.4864
rtibia 21.1112
rfoot -5.98962 -10.2164
rtoes -7.1804
lfemur 12.7821 -2.51579 -25.1464
ltibia 21.0691
lfoot -15.402 -3.89468
ltoes -10.3448
46
root 0.418571 17.7815 -21.7796 -1.92401 4.21393 0.853878
lowerback 11.2106 -1.68015 -4.66872
upperback -0.153695 -2.70737 2.19706
thorax -6.13541 -1.1511 5.39948
lowerneck -15.2568 -2.61692 -2.25703
upperneck 21.5112 -3.09028 0.0236658
head 9.332 -1.62661 -0.000420082
rclavicle 1.50579e-014 -1.39149e-014
rhumerus -39.7522 -29.1694 -69.2752
rradius 20.2285
rwrist 11.1052
rhand -18.4863 21.8532
rfingers 7.12502
rthumb 7.80099 -7.98287
lclavicle 1.50579e-014 -1.39149e-014
lhumerus -22.0877 -0.318235 83.0607
lradius 28.1406
lwrist 6.66881
lhand -33.0496 13.7377
lfingers 7.12502
lthumb -6.26211 43.6251
rfemur -26.6194 1.85787 21.6466
rtibia 22.2292
rfoot -5.01143 -10.6639
rtoes -7.70923
lfemur 13.172 -3.05762 -24.9633
ltibia 21.941
lfoot -14.6922 -4.38548
ltoes -11.4742
